<?xml version="1.0" encoding="UTF-8"?>
<svg id="Layer_1_copy_7" xmlns="http://www.w3.org/2000/svg" version="1.1" viewBox="0 0 24 22">
  <!-- Generator: Adobe Illustrator 29.5.1, SVG Export Plug-In . SVG Version: 2.1.0 Build 141)  -->
  <path d="M6.4,10.1h2.7c1.9,0,3.4,1.5,3.4,3.4s-.3.7-.7.7H3.7c-.4,0-.7-.3-.7-.7,0-1.9,1.5-3.4,3.4-3.4Z"/>
  <circle cx="7.7" cy="6.4" r="2.7"/>
  <rect x="13.9" y="3.9" width="7.1" height="2" rx="1" ry="1"/>
  <rect x="13.9" y="11.9" width="7.1" height="2" rx="1" ry="1"/>
  <rect x="13.9" y="7.9" width="7.1" height="2" rx="1" ry="1"/>
  <path d="M23,0H1C.4,0,0,.4,0,1v15.8c0,.6.4,1,1,1h1.3c.4,0,.7-.3.7-.7h0c0-.4-.3-.7-.7-.7h.2c-.6,0-1-.4-1-1V2.4c0-.6.4-1,1-1h19c.6,0,1,.4,1,1v12.9c0,.6-.4,1-1,1h.2c-.4,0-.7.3-.7.7h0c0,.4.3.7.7.7h1.3c.6,0,1-.4,1-1V1C24,.4,23.6,0,23,0Z"/>
  <rect x="10.7" y="18.7" width="7.1" height="2" rx="1" ry="1" transform="translate(36.4 29.7) rotate(150)"/>
  <rect x="6.2" y="18.7" width="7.1" height="2" rx="1" ry="1" transform="translate(11.2 -2.3) rotate(30)"/>
</svg>