<?xml version="1.0" encoding="UTF-8"?>
<svg id="Layer_1" xmlns="http://www.w3.org/2000/svg" version="1.1" viewBox="0 0 576 447.7">
  <!-- Generator: Adobe Illustrator 29.5.1, SVG Export Plug-In . SVG Version: 2.1.0 Build 141)  -->
  <path d="M64,0C28.7,0,0,28.7,0,64v154.1C0,253.4,28.7,282.1,64,282.1h448c35.3,0,64-28.7,64-64V64c0-35.3-28.7-64-64-64H64ZM148,165.9h56.1c38.7,0,70.1,31.4,70.1,70.1s-6.3,14-14,14H91.8c-7.7,0-14-6.3-14-14,0-38.7,31.4-70.1,70.1-70.1ZM119.9,88.1c0-31,25.1-56.1,56.1-56.1s56.1,25.1,56.1,56.1-25.1,56.1-56.1,56.1-56.1-25.1-56.1-56.1ZM368,64h128c8.8,0,16,7.2,16,16s-7.2,16-16,16h-128c-8.8,0-16-7.2-16-16s7.2-16,16-16ZM368,128h128c8.8,0,16,7.2,16,16s-7.2,16-16,16h-128c-8.8,0-16-7.2-16-16s7.2-16,16-16ZM368,192h128c8.8,0,16,7.2,16,16s-7.2,16-16,16h-128c-8.8,0-16-7.2-16-16s7.2-16,16-16Z"/>
  <rect x="256" y="281.7" width="64" height="165.9" rx="32" ry="32"/>
  <rect x="294" y="324" width="64" height="147.9" rx="32" ry="32" transform="translate(548.9 -65.7) rotate(65)"/>
  <rect x="218" y="324" width="64" height="147.9" rx="32" ry="32" transform="translate(-216.3 456.3) rotate(-65)"/>
</svg>