<?xml version="1.0" encoding="UTF-8"?>
<svg xmlns="http://www.w3.org/2000/svg" version="1.1" viewBox="0 0 512 512">
  <!-- Generator: Adobe Illustrator 28.7.8, SVG Export Plug-In . SVG Version: 1.2.0 Build 200)  -->
  <g>
    <g id="Layer_4">
      <g>
        <path d="M472.9,448.8H126.4c-34.9,0-63.2-28.3-63.2-63.2V63.7c0-17.5-14.2-31.6-31.6-31.6h0C14.2,32.1,0,46.3,0,63.7v385h0c0,34.9,28.3,63.2,63.2,63.2h409.7c17.5,0,31.6-14.2,31.6-31.6h0c0-17.5-14.2-31.6-31.6-31.6Z"/>
        <path d="M107.5,342.9h0c-9.7-7.3-11.6-21.1-4.3-30.8l58.5-77.6c9.1-12.1,26.7-13.3,37.5-2.7l12.5,12.3c11.9,11.8,31.8,9,40-5.6l28.8-51.1c8.5-15.1,29.2-17.4,40.8-4.6l18.8,20.7c11.4,12.6,31.7,10.4,40.2-4.3l42.9-74.2c6.1-10.5,19.5-14.1,30.1-8h0c10.5,6.1,14.1,19.5,8,30.1l-73.1,126.4c-8.5,14.7-28.8,16.8-40.2,4.3l-18.3-20.2c-11.6-12.8-32.3-10.5-40.8,4.6l-27.1,48.1c-8.2,14.6-28.1,17.4-40,5.6l-17.7-17.4c-10.7-10.6-28.4-9.3-37.5,2.7l-28.3,37.5c-7.3,9.7-21.1,11.6-30.8,4.3Z"/>
      </g>
    </g>
  </g>
</svg>