<?xml version="1.0" encoding="UTF-8"?>
<svg xmlns="http://www.w3.org/2000/svg" version="1.1" viewBox="0 0 512 512">
  <!-- Generator: Adobe Illustrator 28.7.8, SVG Export Plug-In . SVG Version: 1.2.0 Build 200)  -->
  <g>
    <g id="Layer_1">
      <path d="M437,437c100-100,100-262.1,0-362-100-100-262.1-100-362,0-100,100-100,262.1,0,362,100,100,262.1,100,362,0ZM340.7,269l-62.8,141.3c-8.4,19-35.4,19-43.8,0l-62.8-141.3c-3.7-8.3-3.7-17.7,0-26l62.8-141.3c8.4-19,35.4-19,43.8,0l62.8,141.3c3.7,8.3,3.7,17.7,0,26ZM278.6,233.4c-12.5-12.5-32.8-12.5-45.3,0s-12.5,32.8,0,45.3c12.5,12.5,32.8,12.5,45.3,0,12.5-12.5,12.5-32.8,0-45.3Z"/>
    </g>
  </g>
</svg>