<?xml version="1.0" encoding="UTF-8"?>
<svg xmlns="http://www.w3.org/2000/svg" version="1.1" viewBox="0 0 22.2 21.9">
  <!-- Generator: Adobe Illustrator 28.7.8, SVG Export Plug-In . SVG Version: 1.2.0 Build 200)  -->
  <g>
    <g id="Layer_1">
      <g id="Layer_2">
        <g>
          <g id="Layer_1_copy_8">
            <path d="M10.7,5.1l-1.4,1.4c-.7-.4-1.4-.7-2.1-.7-1.8,0-3.2,1.4-3.2,3.1s1.4,3.1,3.2,3.1,2.5-.4,3.2-2.1h-3.2v-2.1h5.3v2.2c-.4,2.4-2.4,4.2-5.2,4.2s-5.2-2.4-5.2-5.2S4.4,3.7,7.2,3.7s3.5,1.4,3.5,1.4Z"/>
          </g>
          <g>
            <path d="M21.5,0H.7c-.4,0-.7.3-.7.7v15.6c0,.4.3.7.7.7h1.7c.4,0,.7-.3.7-.7h0c0-.4-.3-.7-.7-.7h-1V1.4h19.3v14.2h-1c-.4,0-.7.3-.7.7h0c0,.4.3.7.7.7h1.7c.4,0,.7-.3.7-.7V.7c0-.4-.3-.7-.7-.7h.1Z"/>
            <path d="M10.5,21.7c.3.3.7.3,1,0l4.3-4.3c.3-.3.3-.7,0-1s-.7-.3-1,0l-3.8,3.8-3.8-3.8c-.3-.3-.7-.3-1,0s-.3.7,0,1l4.3,4.3h0Z"/>
            <g>
              <path d="M13.6,10.4h5.2c.4,0,.7.3.7.7h0c0,.4-.3.7-.7.7h-5.2c-.4,0-.7-.3-.7-.7h0c0-.4.3-.7.7-.7Z"/>
              <path d="M13.6,7.6h5.2c.4,0,.7.3.7.7h0c0,.4-.3.7-.7.7h-5.2c-.4,0-.7-.3-.7-.7h0c0-.4.3-.7.7-.7Z"/>
              <rect x="12.9" y="4.7" width="6.6" height="1.4" rx=".7" ry=".7"/>
            </g>
          </g>
        </g>
      </g>
    </g>
  </g>
</svg>