<?xml version="1.0" encoding="UTF-8"?>
<svg xmlns="http://www.w3.org/2000/svg" version="1.1" viewBox="0 0 511.9 511.9">
  <defs>
    <style>
      .cls-1 {
        fill-rule: evenodd;
      }
    </style>
  </defs>
  <!-- Generator: Adobe Illustrator 28.7.8, SVG Export Plug-In . SVG Version: 1.2.0 Build 200)  -->
  <g>
    <g id="Layer_1">
      <g id="Layer_1-2" data-name="Layer_1">
        <g id="meteor-icon-kit__solid-linkedin">
          <path class="cls-1" d="M475.1,0H36.8C16,0,0,16,0,36.8v438.3c0,20.8,16,36.8,36.8,36.8h438.3c20.8,0,36.8-16,36.8-36.8V36.8C511.9,16,495.9,0,475.1,0ZM155.2,438.3h-75.2v-244.8h76.8v244.8h-1.6ZM116.8,161.6c-24,0-44.8-19.2-44.8-44.8s19.2-43.2,44.8-43.2,44.8,19.2,44.8,43.2-19.2,44.8-44.8,44.8ZM438.3,438.3h-75.2v-118.4c0-28.8,0-65.6-40-65.6s-46.4,30.4-46.4,62.4v121.6h-75.2v-244.8h72v33.6h0c9.6-19.2,35.2-40,72-40,76.8,0,91.2,51.2,91.2,116.8v134.4h1.6Z"/>
        </g>
      </g>
    </g>
  </g>
</svg>